<svg xmlns="http://www.w3.org/2000/svg" xmlns:xlink="http://www.w3.org/1999/xlink" width="202" height="61" viewBox="0 0 202 61"><defs><style>.a{fill:#fff;}.b{clip-path:url(#a);}</style><clipPath id="a"><rect class="a" width="202" height="61"/></clipPath></defs><g class="b"><path class="a" d="M7.071,42.924C4.413,33.11,3.92,20.5,9.334,0-10,34.234,5.283,50.567,14.3,60.628c-7.15-18.979,5.994-32.7,10.437-13.36C22.669,26.69,7.8,30.438,7.071,42.924" transform="translate(0)"/><path class="a" d="M42.037,125.63a3.593,3.593,0,1,1-3.593-3.593,3.593,3.593,0,0,1,3.593,3.593" transform="translate(-27.808 -97.374)"/><path class="a" d="M185.779,129.319a6.683,6.683,0,0,0-2.468-1.737,8.929,8.929,0,0,0-3.439-.612,7.956,7.956,0,0,0-2.23.307,8.913,8.913,0,0,0-1.882.78,7.509,7.509,0,0,0-1.271.893V116.635a.687.687,0,0,0-.687-.687h-3.115a.687.687,0,0,0-.687.687v30.191a.687.687,0,0,0,.687.687H173.8a.687.687,0,0,0,.687-.687V137.72a11.034,11.034,0,0,1,.318-2.744,5.953,5.953,0,0,1,.928-2.043,3.919,3.919,0,0,1,1.535-1.26,5.432,5.432,0,0,1,2.322-.454,3.147,3.147,0,0,1,2.689,1.088,5.352,5.352,0,0,1,.9,3.3v11.222a.687.687,0,0,0,.687.687h3.115a.687.687,0,0,0,.687-.687V135.284a11.6,11.6,0,0,0-.447-3.29,7.029,7.029,0,0,0-1.441-2.675" transform="translate(-135.644 -92.516)"/><path class="a" d="M296.464,125.433a2.842,2.842,0,0,0-2.111.888,2.963,2.963,0,1,0,4.221,0,2.84,2.84,0,0,0-2.11-.887" transform="translate(-234.186 -100.084)"/><path class="a" d="M297.746,192.92h3.115a.687.687,0,0,0,.687-.687v-18.69a.687.687,0,0,0-.687-.687h-3.115a.687.687,0,0,0-.687.687v18.69a.687.687,0,0,0,.687.687" transform="translate(-237.025 -137.924)"/><path class="a" d="M359.774,165.244a5.19,5.19,0,0,1-1.2.423,5.8,5.8,0,0,1-1.249.143,2.412,2.412,0,0,1-1.242-.24,1.462,1.462,0,0,1-.576-.629,2.851,2.851,0,0,1-.252-1.1c-.026-.5-.039-1.059-.039-1.661V153.87a.343.343,0,0,1,.344-.344h4.481a.687.687,0,0,0,.687-.687V150.2a.687.687,0,0,0-.687-.687H355.56a.344.344,0,0,1-.344-.344v-4.281a.687.687,0,0,0-.686-.687h-3.115a.687.687,0,0,0-.687.687v4.281a.344.344,0,0,1-.344.344h-3.043a.687.687,0,0,0-.687.687v2.636a.687.687,0,0,0,.687.687h3.043a.343.343,0,0,1,.344.344V163.1a18.183,18.183,0,0,0,.187,2.719,5.3,5.3,0,0,0,.855,2.267,4.319,4.319,0,0,0,1.844,1.473,7.332,7.332,0,0,0,2.952.5,12.324,12.324,0,0,0,1.968-.169,7.833,7.833,0,0,0,1.948-.571.687.687,0,0,0,.4-.656l-.12-2.836a.687.687,0,0,0-.993-.585Z" transform="translate(-276.598 -115.063)"/><path class="a" d="M457.233,171.048a9.952,9.952,0,0,0-3.387-2.167,12.135,12.135,0,0,0-8.487,0,9.947,9.947,0,0,0-3.387,2.167,10.159,10.159,0,0,0-2.227,3.317,11.566,11.566,0,0,0,0,8.521,10.159,10.159,0,0,0,2.227,3.318,9.938,9.938,0,0,0,3.387,2.167,12.132,12.132,0,0,0,8.487,0,9.945,9.945,0,0,0,3.387-2.166,10.177,10.177,0,0,0,2.228-3.318,11.577,11.577,0,0,0,0-8.521,10.18,10.18,0,0,0-2.228-3.317m-13.572,7.577a7.268,7.268,0,0,1,.418-2.5,5.624,5.624,0,0,1,3.067-3.281,6.526,6.526,0,0,1,4.915,0,5.623,5.623,0,0,1,3.067,3.281,7.694,7.694,0,0,1,0,5,5.623,5.623,0,0,1-3.068,3.282,6.523,6.523,0,0,1-4.915,0,5.623,5.623,0,0,1-3.067-3.281,7.269,7.269,0,0,1-.418-2.5" transform="translate(-350.226 -134.14)"/><path class="a" d="M594.193,127.449H589.76a.687.687,0,0,0-.478.193l-6.759,6.537a.343.343,0,0,1-.582-.247v-17.3a.687.687,0,0,0-.687-.687h-3.115a.687.687,0,0,0-.687.687v30.191a.687.687,0,0,0,.687.687h3.115a.687.687,0,0,0,.687-.687V139.6a.343.343,0,0,1,.593-.236l7.485,7.937a.687.687,0,0,0,.5.215h4.592a.687.687,0,0,0,.492-1.167l-9.455-9.683,8.516-8.027a.687.687,0,0,0-.471-1.187" transform="translate(-460.752 -92.516)"/><path class="a" d="M694.131,192.92h3.115a.687.687,0,0,0,.687-.687v-18.69a.687.687,0,0,0-.687-.687h-3.115a.687.687,0,0,0-.687.687v18.69a.687.687,0,0,0,.687.687" transform="translate(-553.303 -137.924)"/><path class="a" d="M692.849,125.433a2.843,2.843,0,0,0-2.111.888,2.964,2.964,0,1,0,4.221,0,2.839,2.839,0,0,0-2.11-.887" transform="translate(-550.464 -100.084)"/><path class="a" d="M764.569,184.757l-3.907-11.435a.686.686,0,0,0-.65-.465h-3.275a.687.687,0,0,0-.651.468l-3.837,11.418a.343.343,0,0,1-.655-.012l-3.383-11.383a.687.687,0,0,0-.658-.491h-3.434a.687.687,0,0,0-.653.9l6.07,18.69a.687.687,0,0,0,.653.475h3.194a.687.687,0,0,0,.653-.473l3.829-11.681a.343.343,0,0,1,.648-.012l4.329,11.717a.687.687,0,0,0,.645.449h3.075a.687.687,0,0,0,.654-.476l6.03-18.69a.687.687,0,0,0-.654-.9h-3.355a.687.687,0,0,0-.659.493l-3.355,11.393a.344.344,0,0,1-.655.014" transform="translate(-593.188 -137.924)"/><path class="a" d="M929.73,186.329c-.051-.542-.077-1.078-.077-1.593v-8.027c0-2.829-.68-4.99-2.023-6.421s-3.538-2.173-6.491-2.173a12.722,12.722,0,0,0-4.242.738,9.516,9.516,0,0,0-3.678,2.345h0a.687.687,0,0,0,0,.955l1.957,2.037a.687.687,0,0,0,.963.027h0a6.487,6.487,0,0,1,2.331-1.391,8.489,8.489,0,0,1,2.753-.462,4.479,4.479,0,0,1,2.968.874,2.894,2.894,0,0,1,.954,2.042.348.348,0,0,1-.343.383h-.145c-1.154,0-2.442.054-3.827.161a15.4,15.4,0,0,0-4.013.837,7.98,7.98,0,0,0-3.251,2.141,5.886,5.886,0,0,0-1.376,4.1,5.663,5.663,0,0,0,.641,2.721,5.916,5.916,0,0,0,1.692,1.963,7.425,7.425,0,0,0,2.418,1.167,10.5,10.5,0,0,0,2.884.386,7.784,7.784,0,0,0,4.046-1.016,8.514,8.514,0,0,0,1.049-.737.341.341,0,0,1,.557.2q.045.286.111.551h0a.686.686,0,0,0,.666.52h3a.687.687,0,0,0,.677-.8c-.077-.466-.142-.98-.193-1.529m-4.909-6.657a.344.344,0,0,1,.344.344v.144a6.617,6.617,0,0,1-.36,1.972,4.584,4.584,0,0,1-.9,1.547,4.328,4.328,0,0,1-1.468,1.05,5.08,5.08,0,0,1-2.094.4,4.778,4.778,0,0,1-2.571-.634,2.059,2.059,0,0,1-.855-1.913,2.168,2.168,0,0,1,1.366-2.136,10.586,10.586,0,0,1,4.457-.771Z" transform="translate(-727.838 -134.14)"/></g></svg>